# Blender v2.81 (sub 16) OBJ File: ''
# www.blender.org
mtllib Crystal.mtl
o Crystal_Cube.008
v 0.000000 0.000000 0.455261
v -0.635135 -0.192255 0.201990
v -0.192255 -0.635135 0.201990
v -0.192255 0.635135 0.201990
v -0.635135 0.192255 0.201990
v 0.192255 -0.635135 0.201990
v 0.635135 -0.192255 0.201990
v 0.635135 0.192255 0.201990
v 0.192255 0.635135 0.201990
v 0.000000 0.000000 -0.455261
v -0.635135 -0.192255 -0.201990
v -0.192255 -0.635135 -0.201990
v -0.192255 0.635135 -0.201990
v -0.635135 0.192255 -0.201990
v 0.192255 -0.635135 -0.201990
v 0.635135 -0.192255 -0.201990
v 0.635135 0.192255 -0.201990
v 0.192255 0.635135 -0.201990
v -0.320561 -0.787699 0.000000
v -0.787699 -0.320562 0.000000
v -0.320561 0.787699 0.000000
v -0.787699 0.320561 0.000000
v 0.320561 -0.787699 0.000000
v 0.787699 -0.320562 0.000000
v 0.320561 0.787699 0.000000
v 0.787699 0.320561 0.000000
vt 0.198999 0.001001
vt 0.001001 0.001001
vt 0.001001 0.198999
vt 0.198999 0.198999
vt 0.598999 0.802002
vt 0.598999 0.998999
vt 0.402002 0.998999
vt 0.998999 0.598999
vt 0.998999 0.402002
vt 0.802002 0.598999
vt 0.998999 0.602002
vt 0.998999 0.798999
vt 0.802002 0.798999
vt 0.798999 0.998999
vt 0.798999 0.802002
vt 0.602002 0.998999
vt 0.198999 0.802002
vt 0.198999 0.998999
vt 0.002002 0.998999
vt 0.198999 0.201001
vt 0.001001 0.201001
vt 0.001001 0.398999
vt 0.198999 0.398999
vt 0.398999 0.001001
vt 0.201001 0.001001
vt 0.201001 0.198999
vt 0.398999 0.198999
vt 0.398999 0.201001
vt 0.201001 0.201001
vt 0.201001 0.398999
vt 0.398999 0.398999
vt 0.198999 0.401001
vt 0.001001 0.401001
vt 0.001001 0.598999
vt 0.198999 0.598999
vt 0.598999 0.001001
vt 0.401001 0.001001
vt 0.401001 0.198999
vt 0.598999 0.198999
vt 0.598999 0.201001
vt 0.401001 0.201001
vt 0.401001 0.398999
vt 0.598999 0.398999
vt 0.998999 0.002002
vt 0.998999 0.198999
vt 0.802002 0.198999
vt 0.998999 0.398999
vt 0.998999 0.202002
vt 0.802002 0.398999
vt 0.398999 0.802002
vt 0.398999 0.998999
vt 0.202002 0.998999
vt 0.398999 0.401001
vt 0.201001 0.401001
vt 0.201001 0.598999
vt 0.398999 0.598999
vt 0.598999 0.401001
vt 0.401001 0.401001
vt 0.401001 0.598999
vt 0.598999 0.598999
vt 0.601001 0.997998
vt 0.601001 0.801001
vt 0.797998 0.801001
vt 0.997998 0.601001
vt 0.801001 0.601001
vt 0.801001 0.797998
vt 0.801001 0.597998
vt 0.801001 0.401001
vt 0.997998 0.401001
vt 0.597998 0.801001
vt 0.401001 0.801001
vt 0.401001 0.997998
vt 0.201001 0.997998
vt 0.201001 0.801001
vt 0.397998 0.801001
vt 0.198999 0.601001
vt 0.001001 0.601001
vt 0.001001 0.798999
vt 0.198999 0.798999
vt 0.798999 0.001001
vt 0.601001 0.001001
vt 0.601001 0.198999
vt 0.798999 0.198999
vt 0.398999 0.601001
vt 0.201001 0.601001
vt 0.201001 0.798999
vt 0.398999 0.798999
vt 0.798999 0.201001
vt 0.601001 0.201001
vt 0.601001 0.398999
vt 0.798999 0.398999
vt 0.598999 0.601001
vt 0.401001 0.601001
vt 0.401001 0.798999
vt 0.598999 0.798999
vt 0.798999 0.401001
vt 0.601001 0.401001
vt 0.601001 0.598999
vt 0.798999 0.598999
vt 0.801001 0.397998
vt 0.801001 0.201001
vt 0.997998 0.201001
vt 0.997998 0.001001
vt 0.801001 0.001001
vt 0.801001 0.197998
vt 0.001001 0.997998
vt 0.001001 0.801001
vt 0.197998 0.801001
vt 0.798999 0.601001
vt 0.601001 0.601001
vt 0.601001 0.798999
vt 0.798999 0.798999
vn 0.0000 -0.7980 0.6027
vn 0.0000 0.3704 0.9289
vn -0.3704 0.0000 0.9289
vn 0.3704 0.0000 0.9289
vn 0.0000 -0.3704 0.9289
vn -0.2809 0.2809 0.9177
vn -0.5042 -0.5042 0.7011
vn 0.5042 0.5042 0.7011
vn 0.5042 -0.5042 0.7011
vn -0.5042 0.5042 0.7011
vn -0.7980 0.0000 0.6027
vn 0.7980 0.0000 0.6027
vn 0.2809 0.2809 0.9177
vn -0.2809 -0.2809 0.9177
vn 0.2809 -0.2809 0.9177
vn 0.0000 0.7980 0.6027
vn 0.0000 -0.7980 -0.6027
vn 0.0000 0.3704 -0.9289
vn -0.3704 0.0000 -0.9289
vn 0.3704 0.0000 -0.9289
vn 0.0000 -0.3704 -0.9289
vn -0.2809 0.2809 -0.9177
vn -0.5042 -0.5042 -0.7011
vn 0.5042 0.5042 -0.7011
vn 0.5042 -0.5042 -0.7011
vn -0.5042 0.5042 -0.7011
vn -0.7980 0.0000 -0.6027
vn 0.7980 0.0000 -0.6027
vn 0.2809 0.2809 -0.9177
vn -0.2809 -0.2809 -0.9177
vn 0.2809 -0.2809 -0.9177
vn 0.0000 0.7980 -0.6027
usemtl None
s off
f 19/1/1 23/2/1 6/3/1 3/4/1
f 1/5/2 9/6/2 4/7/2
f 2/8/3 1/9/3 5/10/3
f 1/11/4 7/12/4 8/13/4
f 6/14/5 1/15/5 3/16/5
f 1/17/6 4/18/6 5/19/6
f 19/20/7 3/21/7 2/22/7 20/23/7
f 25/24/8 9/25/8 8/26/8 26/27/8
f 6/28/9 23/29/9 24/30/9 7/31/9
f 4/32/10 21/33/10 22/34/10 5/35/10
f 2/36/11 5/37/11 22/38/11 20/39/11
f 24/40/12 26/41/12 8/42/12 7/43/12
f 1/44/13 8/45/13 9/46/13
f 3/47/14 1/48/14 2/49/14
f 1/50/15 6/51/15 7/52/15
f 25/53/16 21/54/16 4/55/16 9/56/16
f 19/57/17 12/58/17 15/59/17 23/60/17
f 10/61/18 13/62/18 18/63/18
f 11/64/19 14/65/19 10/66/19
f 10/67/20 17/68/20 16/69/20
f 15/70/21 12/71/21 10/72/21
f 10/73/22 14/74/22 13/75/22
f 19/76/23 20/77/23 11/78/23 12/79/23
f 25/80/24 26/81/24 17/82/24 18/83/24
f 15/84/25 16/85/25 24/86/25 23/87/25
f 13/88/26 14/89/26 22/90/26 21/91/26
f 11/92/27 20/93/27 22/94/27 14/95/27
f 24/96/28 16/97/28 17/98/28 26/99/28
f 10/100/29 18/101/29 17/102/29
f 12/103/30 11/104/30 10/105/30
f 10/106/31 16/107/31 15/108/31
f 25/109/32 18/110/32 13/111/32 21/112/32
