# Blender v2.81 (sub 16) OBJ File: ''
# www.blender.org
mtllib Stone4.mtl
o Stone4_Cube.007
v -1.505099 -1.733471 1.547684
v -1.517835 -1.724092 -1.453721
v 1.395655 -1.709849 1.559210
v 1.496916 -1.736197 -1.250191
v -1.367910 1.476655 1.342957
v -1.526879 0.161455 1.592063
v -1.247471 1.444647 -1.035560
v -1.624207 0.420784 -1.301900
v 1.326911 1.674130 1.303388
v 1.399265 0.495831 1.792223
v 1.334165 1.712841 -1.109856
v 1.617798 1.065493 -1.331384
vt 0.332332 0.001001
vt 0.001001 0.001001
vt 0.001001 0.332332
vt 0.332332 0.332332
vt 0.332332 0.334334
vt 0.001001 0.334334
vt 0.001001 0.665666
vt 0.332332 0.665666
vt 0.665666 0.001001
vt 0.334334 0.001001
vt 0.334334 0.332332
vt 0.665666 0.332332
vt 0.665666 0.334334
vt 0.334334 0.334334
vt 0.334334 0.665666
vt 0.665666 0.665666
vt 0.332332 0.667668
vt 0.001001 0.667668
vt 0.001001 0.998999
vt 0.332332 0.998999
vt 0.998999 0.001001
vt 0.667668 0.001001
vt 0.667668 0.332332
vt 0.998999 0.332332
vt 0.998999 0.334334
vt 0.667668 0.334334
vt 0.667668 0.665666
vt 0.998999 0.665666
vt 0.665666 0.667668
vt 0.334334 0.667668
vt 0.334334 0.998999
vt 0.665666 0.998999
vt 0.998999 0.667668
vt 0.667668 0.667668
vt 0.667668 0.998999
vt 0.998999 0.998999
vn -0.0879 0.9961 -0.0009
vn 0.9983 -0.0264 0.0514
vn 0.9944 0.0892 0.0571
vn 0.9967 0.0597 0.0557
vn -0.9993 -0.0325 0.0172
vn 0.0264 0.0142 -0.9996
vn -0.0068 0.1168 -0.9931
vn -0.0182 0.1516 -0.9883
vn -0.9748 0.2232 0.0054
vn -0.0614 0.2828 -0.9572
vn 0.9779 0.1997 0.0618
vn -0.0543 0.2851 0.9570
vn -0.0427 0.0915 0.9949
vn -0.0444 0.1190 0.9919
vn -0.0321 -0.0676 0.9972
usemtl None
s 1
f 11/1/1 7/2/1 5/3/1 9/4/1
f 4/5/2 12/6/3 10/7/4 3/8/2
f 1/9/5 6/10/5 8/11/5 2/12/5
f 2/13/6 8/14/7 12/15/8 4/16/6
f 5/17/9 7/18/9 8/19/9 6/20/9
f 7/21/10 11/22/10 12/23/8 8/24/7
f 11/25/11 9/26/11 10/27/4 12/28/3
f 9/29/12 5/30/12 6/31/13 10/32/14
f 3/33/15 10/34/14 6/35/13 1/36/15
