# Blender v2.80 (sub 75) OBJ File: ''
# www.blender.org
o Plane
v -1.000000 0.000000 -1.000000
v -0.507758 1.531326 -0.492242
v 1.000000 0.000000 -1.000000
v 0.000000 0.000000 -1.000000
v 0.507758 1.531326 -0.492242
v -1.000000 0.000000 1.000000
v -1.000000 0.000000 0.000000
v -0.507758 1.531326 0.492242
v 1.000000 0.000000 1.000000
v 1.000000 0.000000 0.000000
v 0.000000 0.000000 1.000000
v 0.000000 0.000000 0.000000
v 0.507758 1.531326 0.492242
vt 0.500000 0.500000
vt 0.000000 0.500000
vt 0.000000 0.500000
vt 0.500000 1.000000
vt 0.500000 0.500000
vt 0.000000 1.000000
vt 0.500000 1.000000
vt 0.000000 1.000000
vt 0.000000 0.500000
vt 0.000000 0.500000
vt 0.500000 0.500000
vt 0.000000 1.000000
vt 0.500000 1.000000
vt 0.000000 1.000000
vt 0.000000 0.500000
vt 0.500000 1.000000
vt 0.500000 0.500000
vt 0.000000 1.000000
vt 0.500000 1.000000
vt 0.000000 1.000000
vt 0.000000 0.500000
vt 0.500000 0.500000
vt 0.000000 1.000000
vt 0.500000 1.000000
vt 0.000000 1.000000
vn 0.0000 0.3060 0.9520
vn 0.9492 0.3147 0.0000
vn 0.0000 0.3147 -0.9492
vn -0.9520 0.3060 0.0000
vn -0.9492 0.3147 0.0000
vn 0.9520 0.3060 0.0000
vn 0.0000 0.3060 -0.9520
vn 0.0000 0.3147 0.9492
s off
f 12/1/1 2/2/1 7/3/1
f 4/4/2 2/5/2 12/1/2
f 1/6/3 2/7/3 4/4/3
f 7/3/4 2/8/4 1/6/4
f 12/1/1 10/9/1 5/10/1
f 4/4/5 12/1/5 5/11/5
f 3/12/3 4/4/3 5/13/3
f 10/9/6 3/12/6 5/14/6
f 12/1/7 7/3/7 8/15/7
f 11/16/2 12/1/2 8/17/2
f 6/18/8 11/16/8 8/19/8
f 7/3/4 6/18/4 8/20/4
f 12/1/7 13/21/7 10/9/7
f 11/16/5 13/22/5 12/1/5
f 9/23/8 13/24/8 11/16/8
f 10/9/6 13/25/6 9/23/6
